# Low-poly Group-A hatchback for RallySimulator
# Original Delta HF Integrale-inspired geometry; front faces -Z
v -0.9600 0.3100 -2.1000
v 0.9600 0.3100 -2.1000
v 0.9600 0.9600 -2.1000
v -0.9600 0.9600 -2.1000
v -0.9400 0.2700 -1.5600
v 0.9400 0.2700 -1.5600
v 0.9400 0.9400 -1.5600
v -0.9400 0.9400 -1.5600
v -0.9100 0.2600 1.6300
v 0.9100 0.2600 1.6300
v 0.9100 0.9600 1.6300
v -0.9100 0.9600 1.6300
v -0.9400 0.3200 2.0400
v 0.9400 0.3200 2.0400
v 0.9400 1.0300 2.0400
v -0.9400 1.0300 2.0400
v -0.8000 0.9200 -2.0300
v 0.8000 0.9200 -2.0300
v 0.8000 0.9200 -0.5200
v -0.8000 0.9200 -0.5200
v -0.7600 1.0800 -1.8500
v 0.7600 1.0800 -1.8500
v 0.7600 1.0800 -0.4800
v -0.7600 1.0800 -0.4800
v -0.8300 0.9400 1.2500
v 0.8300 0.9400 1.2500
v 0.8300 1.1000 1.2500
v -0.8300 1.1000 1.2500
v -0.8300 0.9400 1.9200
v 0.8300 0.9400 1.9200
v 0.8300 1.1000 1.9200
v -0.8300 1.1000 1.9200
v -0.7800 0.9500 -0.5800
v 0.7800 0.9500 -0.5800
v 0.7800 0.9500 1.3100
v -0.7800 0.9500 1.3100
v -0.6700 1.5500 -0.2200
v 0.6700 1.5500 -0.2200
v 0.6700 1.5500 0.9200
v -0.6700 1.5500 0.9200
v -0.7000 1.4900 1.3500
v 0.7000 1.4900 1.3500
v 0.7000 1.1200 1.6200
v -0.7000 1.1200 1.6200
v -1.1700 0.3000 -1.8100
v -0.8000 0.3000 -1.8100
v -0.8000 0.9000 -1.8100
v -1.1700 0.9000 -1.8100
v -1.1700 0.3000 -0.8900
v -0.8000 0.3000 -0.8900
v -0.8000 0.9000 -0.8900
v -1.1700 0.9000 -0.8900
v 0.8000 0.3000 -1.8100
v 1.1700 0.3000 -1.8100
v 1.1700 0.9000 -1.8100
v 0.8000 0.9000 -1.8100
v 0.8000 0.3000 -0.8900
v 1.1700 0.3000 -0.8900
v 1.1700 0.9000 -0.8900
v 0.8000 0.9000 -0.8900
v -1.1700 0.3000 0.8600
v -0.8000 0.3000 0.8600
v -0.8000 0.9000 0.8600
v -1.1700 0.9000 0.8600
v -1.1700 0.3000 1.7800
v -0.8000 0.3000 1.7800
v -0.8000 0.9000 1.7800
v -1.1700 0.9000 1.7800
v 0.8000 0.3000 0.8600
v 1.1700 0.3000 0.8600
v 1.1700 0.9000 0.8600
v 0.8000 0.9000 0.8600
v 0.8000 0.3000 1.7800
v 1.1700 0.3000 1.7800
v 1.1700 0.9000 1.7800
v 0.8000 0.9000 1.7800
v -1.0800 0.2500 -0.9400
v 1.0800 0.2500 -0.9400
v 1.0800 0.4000 -0.9400
v -1.0800 0.4000 -0.9400
v -1.0800 0.2500 1.0000
v 1.0800 0.2500 1.0000
v 1.0800 0.4000 1.0000
v -1.0800 0.4000 1.0000
v -1.0000 0.3600 -2.2300
v 1.0000 0.3600 -2.2300
v 1.0000 0.7000 -2.2300
v -1.0000 0.7000 -2.2300
v -1.0000 0.3600 -2.0600
v 1.0000 0.3600 -2.0600
v 1.0000 0.7000 -2.0600
v -1.0000 0.7000 -2.0600
v -0.6600 0.6800 -2.2700
v -0.1600 0.6800 -2.2700
v -0.1600 0.9400 -2.2700
v -0.6600 0.9400 -2.2700
v -0.6600 0.6800 -2.1000
v -0.1600 0.6800 -2.1000
v -0.1600 0.9400 -2.1000
v -0.6600 0.9400 -2.1000
v 0.1600 0.6800 -2.2700
v 0.6600 0.6800 -2.2700
v 0.6600 0.9400 -2.2700
v 0.1600 0.9400 -2.2700
v 0.1600 0.6800 -2.1000
v 0.6600 0.6800 -2.1000
v 0.6600 0.9400 -2.1000
v 0.1600 0.9400 -2.1000
v -0.9100 0.7200 -2.2800
v -0.6900 0.7200 -2.2800
v -0.6900 0.9600 -2.2800
v -0.9100 0.9600 -2.2800
v -0.9100 0.7200 -2.1100
v -0.6900 0.7200 -2.1100
v -0.6900 0.9600 -2.1100
v -0.9100 0.9600 -2.1100
v 0.6900 0.7200 -2.2800
v 0.9100 0.7200 -2.2800
v 0.9100 0.9600 -2.2800
v 0.6900 0.9600 -2.2800
v 0.6900 0.7200 -2.1100
v 0.9100 0.7200 -2.1100
v 0.9100 0.9600 -2.1100
v 0.6900 0.9600 -2.1100
v -0.1000 0.6500 -2.2900
v 0.1000 0.6500 -2.2900
v 0.1000 0.9900 -2.2900
v -0.1000 0.9900 -2.2900
v -0.1000 0.6500 -2.1100
v 0.1000 0.6500 -2.1100
v 0.1000 0.9900 -2.1100
v -0.1000 0.9900 -2.1100
v -0.8400 0.7500 -2.3100
v -0.6000 0.7500 -2.3100
v -0.6000 0.9400 -2.3100
v -0.8400 0.9400 -2.3100
v -0.8400 0.7500 -2.2600
v -0.6000 0.7500 -2.2600
v -0.6000 0.9400 -2.2600
v -0.8400 0.9400 -2.2600
v -0.4700 0.7500 -2.3100
v -0.2300 0.7500 -2.3100
v -0.2300 0.9400 -2.3100
v -0.4700 0.9400 -2.3100
v -0.4700 0.7500 -2.2600
v -0.2300 0.7500 -2.2600
v -0.2300 0.9400 -2.2600
v -0.4700 0.9400 -2.2600
v 0.2300 0.7500 -2.3100
v 0.4700 0.7500 -2.3100
v 0.4700 0.9400 -2.3100
v 0.2300 0.9400 -2.3100
v 0.2300 0.7500 -2.2600
v 0.4700 0.7500 -2.2600
v 0.4700 0.9400 -2.2600
v 0.2300 0.9400 -2.2600
v 0.6000 0.7500 -2.3100
v 0.8400 0.7500 -2.3100
v 0.8400 0.9400 -2.3100
v 0.6000 0.9400 -2.3100
v 0.6000 0.7500 -2.2600
v 0.8400 0.7500 -2.2600
v 0.8400 0.9400 -2.2600
v 0.6000 0.9400 -2.2600
v -0.7400 0.4500 -2.3000
v -0.5800 0.4500 -2.3000
v -0.5800 0.6300 -2.3000
v -0.7400 0.6300 -2.3000
v -0.7400 0.4500 -2.2200
v -0.5800 0.4500 -2.2200
v -0.5800 0.6300 -2.2200
v -0.7400 0.6300 -2.2200
v -0.3000 0.4500 -2.3000
v -0.1400 0.4500 -2.3000
v -0.1400 0.6300 -2.3000
v -0.3000 0.6300 -2.3000
v -0.3000 0.4500 -2.2200
v -0.1400 0.4500 -2.2200
v -0.1400 0.6300 -2.2200
v -0.3000 0.6300 -2.2200
v 0.1400 0.4500 -2.3000
v 0.3000 0.4500 -2.3000
v 0.3000 0.6300 -2.3000
v 0.1400 0.6300 -2.3000
v 0.1400 0.4500 -2.2200
v 0.3000 0.4500 -2.2200
v 0.3000 0.6300 -2.2200
v 0.1400 0.6300 -2.2200
v 0.5800 0.4500 -2.3000
v 0.7400 0.4500 -2.3000
v 0.7400 0.6300 -2.3000
v 0.5800 0.6300 -2.3000
v 0.5800 0.4500 -2.2200
v 0.7400 0.4500 -2.2200
v 0.7400 0.6300 -2.2200
v 0.5800 0.6300 -2.2200
v -0.9800 0.3500 1.9900
v 0.9800 0.3500 1.9900
v 0.9800 0.6600 1.9900
v -0.9800 0.6600 1.9900
v -0.9800 0.3500 2.1700
v 0.9800 0.3500 2.1700
v 0.9800 0.6600 2.1700
v -0.9800 0.6600 2.1700
v -0.8900 0.6900 2.0300
v -0.6100 0.6900 2.0300
v -0.6100 0.9600 2.0300
v -0.8900 0.9600 2.0300
v -0.8900 0.6900 2.1800
v -0.6100 0.6900 2.1800
v -0.6100 0.9600 2.1800
v -0.8900 0.9600 2.1800
v 0.6100 0.6900 2.0300
v 0.8900 0.6900 2.0300
v 0.8900 0.9600 2.0300
v 0.6100 0.9600 2.0300
v 0.6100 0.6900 2.1800
v 0.8900 0.6900 2.1800
v 0.8900 0.9600 2.1800
v 0.6100 0.9600 2.1800
v -0.8300 1.1900 1.4800
v -0.6500 1.1900 1.4800
v -0.6500 1.5400 1.4800
v -0.8300 1.5400 1.4800
v -0.8300 1.1900 1.6300
v -0.6500 1.1900 1.6300
v -0.6500 1.5400 1.6300
v -0.8300 1.5400 1.6300
v 0.6500 1.1900 1.4800
v 0.8300 1.1900 1.4800
v 0.8300 1.5400 1.4800
v 0.6500 1.5400 1.4800
v 0.6500 1.1900 1.6300
v 0.8300 1.1900 1.6300
v 0.8300 1.5400 1.6300
v 0.6500 1.5400 1.6300
v -1.0500 1.5200 1.4200
v 1.0500 1.5200 1.4200
v 1.0500 1.6500 1.4200
v -1.0500 1.6500 1.4200
v -1.0500 1.5200 1.8200
v 1.0500 1.5200 1.8200
v 1.0500 1.6500 1.8200
v -1.0500 1.6500 1.8200
v -0.3400 1.0800 -1.3000
v 0.3400 1.0800 -1.3000
v 0.3400 1.1700 -1.3000
v -0.3400 1.1700 -1.3000
v -0.3400 1.0800 -0.6800
v 0.3400 1.0800 -0.6800
v 0.3400 1.1700 -0.6800
v -0.3400 1.1700 -0.6800
v -1.0000 0.7900 -0.3400
v -0.9400 0.7900 -0.3400
v -0.9400 0.8800 -0.3400
v -1.0000 0.8800 -0.3400
v -1.0000 0.7900 1.1500
v -0.9400 0.7900 1.1500
v -0.9400 0.8800 1.1500
v -1.0000 0.8800 1.1500
v 0.9400 0.7900 -0.3400
v 1.0000 0.7900 -0.3400
v 1.0000 0.8800 -0.3400
v 0.9400 0.8800 -0.3400
v 0.9400 0.7900 1.1500
v 1.0000 0.7900 1.1500
v 1.0000 0.8800 1.1500
v 0.9400 0.8800 1.1500
v -0.7900 1.0400 0.4700
v -0.5800 1.0400 0.4700
v -0.5800 1.1000 0.4700
v -0.7900 1.1000 0.4700
v -0.7900 1.0400 0.5700
v -0.5800 1.0400 0.5700
v -0.5800 1.1000 0.5700
v -0.7900 1.1000 0.5700
v 0.5800 1.0400 0.4700
v 0.7900 1.0400 0.4700
v 0.7900 1.1000 0.4700
v 0.5800 1.1000 0.4700
v 0.5800 1.0400 0.5700
v 0.7900 1.0400 0.5700
v 0.7900 1.1000 0.5700
v 0.5800 1.1000 0.5700
f 1 2 6
f 1 6 5
f 2 3 7
f 2 7 6
f 3 4 8
f 3 8 7
f 4 1 5
f 4 5 8
f 5 6 10
f 5 10 9
f 6 7 11
f 6 11 10
f 7 8 12
f 7 12 11
f 8 5 9
f 8 9 12
f 9 10 14
f 9 14 13
f 10 11 15
f 10 15 14
f 11 12 16
f 11 16 15
f 12 9 13
f 12 13 16
f 1 2 3
f 1 3 4
f 16 15 14
f 16 14 13
f 17 18 22
f 17 22 21
f 18 19 23
f 18 23 22
f 19 20 24
f 19 24 23
f 20 17 21
f 20 21 24
f 17 18 19
f 17 19 20
f 24 23 22
f 24 22 21
f 25 28 27
f 25 27 26
f 29 30 31
f 29 31 32
f 25 26 30
f 25 30 29
f 28 32 31
f 28 31 27
f 25 29 32
f 25 32 28
f 26 27 31
f 26 31 30
f 33 34 38
f 33 38 37
f 34 35 39
f 34 39 38
f 35 36 40
f 35 40 39
f 36 33 37
f 36 37 40
f 37 38 42
f 37 42 41
f 38 39 43
f 38 43 42
f 39 40 44
f 39 44 43
f 40 37 41
f 40 41 44
f 33 34 35
f 33 35 36
f 44 43 42
f 44 42 41
f 45 48 47
f 45 47 46
f 49 50 51
f 49 51 52
f 45 46 50
f 45 50 49
f 48 52 51
f 48 51 47
f 45 49 52
f 45 52 48
f 46 47 51
f 46 51 50
f 53 56 55
f 53 55 54
f 57 58 59
f 57 59 60
f 53 54 58
f 53 58 57
f 56 60 59
f 56 59 55
f 53 57 60
f 53 60 56
f 54 55 59
f 54 59 58
f 61 64 63
f 61 63 62
f 65 66 67
f 65 67 68
f 61 62 66
f 61 66 65
f 64 68 67
f 64 67 63
f 61 65 68
f 61 68 64
f 62 63 67
f 62 67 66
f 69 72 71
f 69 71 70
f 73 74 75
f 73 75 76
f 69 70 74
f 69 74 73
f 72 76 75
f 72 75 71
f 69 73 76
f 69 76 72
f 70 71 75
f 70 75 74
f 77 80 79
f 77 79 78
f 81 82 83
f 81 83 84
f 77 78 82
f 77 82 81
f 80 84 83
f 80 83 79
f 77 81 84
f 77 84 80
f 78 79 83
f 78 83 82
f 85 88 87
f 85 87 86
f 89 90 91
f 89 91 92
f 85 86 90
f 85 90 89
f 88 92 91
f 88 91 87
f 85 89 92
f 85 92 88
f 86 87 91
f 86 91 90
f 93 96 95
f 93 95 94
f 97 98 99
f 97 99 100
f 93 94 98
f 93 98 97
f 96 100 99
f 96 99 95
f 93 97 100
f 93 100 96
f 94 95 99
f 94 99 98
f 101 104 103
f 101 103 102
f 105 106 107
f 105 107 108
f 101 102 106
f 101 106 105
f 104 108 107
f 104 107 103
f 101 105 108
f 101 108 104
f 102 103 107
f 102 107 106
f 109 112 111
f 109 111 110
f 113 114 115
f 113 115 116
f 109 110 114
f 109 114 113
f 112 116 115
f 112 115 111
f 109 113 116
f 109 116 112
f 110 111 115
f 110 115 114
f 117 120 119
f 117 119 118
f 121 122 123
f 121 123 124
f 117 118 122
f 117 122 121
f 120 124 123
f 120 123 119
f 117 121 124
f 117 124 120
f 118 119 123
f 118 123 122
f 125 128 127
f 125 127 126
f 129 130 131
f 129 131 132
f 125 126 130
f 125 130 129
f 128 132 131
f 128 131 127
f 125 129 132
f 125 132 128
f 126 127 131
f 126 131 130
f 133 136 135
f 133 135 134
f 137 138 139
f 137 139 140
f 133 134 138
f 133 138 137
f 136 140 139
f 136 139 135
f 133 137 140
f 133 140 136
f 134 135 139
f 134 139 138
f 141 144 143
f 141 143 142
f 145 146 147
f 145 147 148
f 141 142 146
f 141 146 145
f 144 148 147
f 144 147 143
f 141 145 148
f 141 148 144
f 142 143 147
f 142 147 146
f 149 152 151
f 149 151 150
f 153 154 155
f 153 155 156
f 149 150 154
f 149 154 153
f 152 156 155
f 152 155 151
f 149 153 156
f 149 156 152
f 150 151 155
f 150 155 154
f 157 160 159
f 157 159 158
f 161 162 163
f 161 163 164
f 157 158 162
f 157 162 161
f 160 164 163
f 160 163 159
f 157 161 164
f 157 164 160
f 158 159 163
f 158 163 162
f 165 168 167
f 165 167 166
f 169 170 171
f 169 171 172
f 165 166 170
f 165 170 169
f 168 172 171
f 168 171 167
f 165 169 172
f 165 172 168
f 166 167 171
f 166 171 170
f 173 176 175
f 173 175 174
f 177 178 179
f 177 179 180
f 173 174 178
f 173 178 177
f 176 180 179
f 176 179 175
f 173 177 180
f 173 180 176
f 174 175 179
f 174 179 178
f 181 184 183
f 181 183 182
f 185 186 187
f 185 187 188
f 181 182 186
f 181 186 185
f 184 188 187
f 184 187 183
f 181 185 188
f 181 188 184
f 182 183 187
f 182 187 186
f 189 192 191
f 189 191 190
f 193 194 195
f 193 195 196
f 189 190 194
f 189 194 193
f 192 196 195
f 192 195 191
f 189 193 196
f 189 196 192
f 190 191 195
f 190 195 194
f 197 200 199
f 197 199 198
f 201 202 203
f 201 203 204
f 197 198 202
f 197 202 201
f 200 204 203
f 200 203 199
f 197 201 204
f 197 204 200
f 198 199 203
f 198 203 202
f 205 208 207
f 205 207 206
f 209 210 211
f 209 211 212
f 205 206 210
f 205 210 209
f 208 212 211
f 208 211 207
f 205 209 212
f 205 212 208
f 206 207 211
f 206 211 210
f 213 216 215
f 213 215 214
f 217 218 219
f 217 219 220
f 213 214 218
f 213 218 217
f 216 220 219
f 216 219 215
f 213 217 220
f 213 220 216
f 214 215 219
f 214 219 218
f 221 224 223
f 221 223 222
f 225 226 227
f 225 227 228
f 221 222 226
f 221 226 225
f 224 228 227
f 224 227 223
f 221 225 228
f 221 228 224
f 222 223 227
f 222 227 226
f 229 232 231
f 229 231 230
f 233 234 235
f 233 235 236
f 229 230 234
f 229 234 233
f 232 236 235
f 232 235 231
f 229 233 236
f 229 236 232
f 230 231 235
f 230 235 234
f 237 240 239
f 237 239 238
f 241 242 243
f 241 243 244
f 237 238 242
f 237 242 241
f 240 244 243
f 240 243 239
f 237 241 244
f 237 244 240
f 238 239 243
f 238 243 242
f 245 248 247
f 245 247 246
f 249 250 251
f 249 251 252
f 245 246 250
f 245 250 249
f 248 252 251
f 248 251 247
f 245 249 252
f 245 252 248
f 246 247 251
f 246 251 250
f 253 256 255
f 253 255 254
f 257 258 259
f 257 259 260
f 253 254 258
f 253 258 257
f 256 260 259
f 256 259 255
f 253 257 260
f 253 260 256
f 254 255 259
f 254 259 258
f 261 264 263
f 261 263 262
f 265 266 267
f 265 267 268
f 261 262 266
f 261 266 265
f 264 268 267
f 264 267 263
f 261 265 268
f 261 268 264
f 262 263 267
f 262 267 266
f 269 272 271
f 269 271 270
f 273 274 275
f 273 275 276
f 269 270 274
f 269 274 273
f 272 276 275
f 272 275 271
f 269 273 276
f 269 276 272
f 270 271 275
f 270 275 274
f 277 280 279
f 277 279 278
f 281 282 283
f 281 283 284
f 277 278 282
f 277 282 281
f 280 284 283
f 280 283 279
f 277 281 284
f 277 284 280
f 278 279 283
f 278 283 282
