# Lightweight low-poly rally car. Local Y=0 is the tyre contact plane;
# local +Z is the rear of the car.
v -0.90 0.10 -1.95
v  0.90 0.10 -1.95
v  0.90 0.10  1.95
v -0.90 0.10  1.95
v -0.90 0.62 -1.95
v  0.90 0.62 -1.95
v  0.90 0.62  1.95
v -0.90 0.62  1.95
v -0.62 0.62 -0.85
v  0.62 0.62 -0.85
v  0.62 1.25  0.80
v -0.62 1.25  0.80
v -0.62 0.62  1.05
v  0.62 0.62  1.05
v  0.62 1.25  0.80
v -0.62 1.25  0.80

# Chassis
f 1 2 6
f 1 6 5
f 2 3 7
f 2 7 6
f 3 4 8
f 3 8 7
f 4 1 5
f 4 5 8
f 5 6 7
f 5 7 8
f 1 4 3
f 1 3 2

# Cabin
f 9 10 15
f 9 15 16
f 10 14 15
f 10 9 13
f 10 13 14
f 13 16 15
f 13 15 14
f 9 16 13

# Raised bonnet, spoiler and wheel-arch silhouettes
v -0.73 0.62 -1.95
v  0.73 0.62 -1.95
v  0.73 0.82 -1.25
v -0.73 0.82 -1.25
v -1.02 0.12 -1.35
v -1.02 0.12 -0.60
v -1.02 0.48 -0.60
v -1.02 0.48 -1.35
v  1.02 0.12 -1.35
v  1.02 0.12 -0.60
v  1.02 0.48 -0.60
v  1.02 0.48 -1.35
v -1.02 0.12 0.65
v -1.02 0.12 1.40
v -1.02 0.48 1.40
v -1.02 0.48 0.65
v  1.02 0.12 0.65
v  1.02 0.12 1.40
v  1.02 0.48 1.40
v  1.02 0.48 0.65
f 17 18 19
f 17 19 20
f 25 26 27
f 25 27 28
f 29 30 31
f 29 31 32
f 33 34 35
f 33 35 36
f 37 38 39
f 37 39 40
